<?xml version="1.0" encoding="UTF-8"?>
<svg width="800px" height="1000px" viewBox="0 0 800 1000" version="1.1" xmlns="http://www.w3.org/2000/svg" xmlns:xlink="http://www.w3.org/1999/xlink">
    <!-- Generator: Sketch 51.3 (57544) - http://www.bohemiancoding.com/sketch -->
    <title>Custom Preset</title>
    <desc>Created with Sketch.</desc>
    <defs></defs>
    <g id="Custom-Preset" stroke="none" stroke-width="1" fill="none" fill-rule="evenodd">
        <g id="Alienation" transform="translate(000.000000, 000.000000)" fill="#fff" fill-rule="nonzero">
            <path d="M108.25,490.81a.48.48,0,0,1,.41-.39q5.36.43,10.7.82c4.46,2.44,7.72,8.72,9.57,13.73,0,.07,1.87-3.32,2.6-4.73a2,2,0,0,0,.23-.78,6.62,6.62,0,0,0-.75-2.76c-.65-1.5-1.64-3.45-3.52-3.58-.4,0-2.5-.23-2.47-.86,0-.26.14-.57.94-.52,3.59.18,6,.32,7.58.42a29.19,29.19,0,0,1,3.18.23c3.57.33,7.37,10.61,7.79,13.57,0,.09,1.77-3.2,2.43-4.73a9.25,9.25,0,0,0,1-3.09c.41-3.22-2.42-4.09-5-4.2a.43.43,0,0,1-.46-.49.89.89,0,0,1,.89-.76q6.27.31,12.53.56c.57,0,1.7.13,1.65.62,0,.18-.13.66-.48.65-2.89-.19-4.78,1.31-6.18,3.75-3.1,5.42-4.26,10.43-6.44,14.85A6.89,6.89,0,0,1,138,516.7c-2.08,0-3-.89-3.56-2.21-2.34-6-1.84-12.28-2.36-12.21a15,15,0,0,0-1.67,3.14c-.62,1.29-1.5,3.05-2.78,5.22s-4.26,5.89-8.54,5.86a4.74,4.74,0,0,1-3.1-1c-1.41-1.44-1.33-3.74-1.12-5.6.77-6,3.83-16-6.3-18.65A.33.33,0,0,1,108.25,490.81Z"/><path class="cls-1" d="M152,509.1a12.24,12.24,0,0,1,1.78-4.41c3.82-6,10.68-11.31,19.1-11.07,5.63.07,11.88,5.68,11.25,11.13a2.54,2.54,0,0,1-2.94,2.44c-1.84-.07-3.28-1-5.17-1.05-3.14-.1-8.75,2.53-10.5,4.24a4,4,0,0,0-1.23,2c-.34,1.81,2.13,3.06,5.08,3.13,5.71.13,10.55-1.44,13.07-4.64a10.16,10.16,0,0,0,1.34-2.47c.07-.08.14-.17.25-.16s.17.05.15.22c-.61,4.5-4.46,6.89-10,7.86a47.14,47.14,0,0,1-9.13.62c-5.72-.16-10.18-.27-12.25-3.3A6.13,6.13,0,0,1,152,509.1Zm13-.1c2.3-1.46,3.89-2.12,5.34-3,2.07-1.23,4.39-3.74,4.68-6.46a3.8,3.8,0,0,0-3.56-4.32c-4-.08-5.9,4.52-6.25,7.27A51.32,51.32,0,0,0,165,509Z"/><path class="cls-1" d="M199.86,515.1c.17-1.18,1-.58,5.4-8.29a11.6,11.6,0,0,0,1.22-4.08c.24-2.55-.49-5.45-3.24-6.74-.43-.27-1.13,0-1.07-.74a.72.72,0,0,1,.68-.74q3.56,0,7.12,0c.79,0,2.21,2.38,2.56,2.94a20.71,20.71,0,0,1,2.32,12.76,34.85,34.85,0,0,1-1.37,6.32,9.87,9.87,0,0,0,9.06-9c.46-4.28-.55-11.64-5.79-11.69H215.5c-.51,0-.72-.26-.73-.88s.84-.62,1.75-.62h1c2.22,0,4.56-.09,6.71,0,4.08.29,7.17,7.44,7.94,10.9a11,11,0,0,1,.22,3.18,25.57,25.57,0,0,1-1,4.29,1.36,1.36,0,0,0-.12.46c-.13,1,.45,1.34.26,2.49l0,.15a1.93,1.93,0,0,1-1.15,1.4c-1.8.69-4.75.59-7.23.57h-.52c-5.61,0-5.6-.85-6.06-1.14a39.12,39.12,0,0,1-9.38.93c-4.27-.14-7.39,0-7.32-2.07A1.57,1.57,0,0,1,199.86,515.1Z"/><path class="cls-1" d="M234,514.59c.18-1.22,1.7-1.93,3.19-1.92a5.61,5.61,0,0,1,1.52.24c4.09,1.55,4.65,4.42,10.37,4.31,2,0,3.94-.36,4.09-1.41.13-.89-1.59-1.89-3.28-2.19-2.29-.4-4.57-.83-6.86-1.27s-5.05-1.51-6.44-3.05a5.57,5.57,0,0,1-1-4.3c.53-6.36,6.65-10.88,12.56-10.87,2.68-.06,6.22.53,8.14,2.73.27.27,1.55,1.78,1.87,2.14a9,9,0,0,0,4.14,3c.16.11.2.4.18.68-.19,1.14-2.31,2.09-3.4,2.12-5.73.48-6.11-9.18-12-9.42-2,0-3.67,2.19-3.81,4.29s1.53,3.23,3.09,3.76q5,1.76,10,3.28c2.4.76,6,3,6.45,4.93a3.94,3.94,0,0,1,.22,1.84c-.31,3.16-4.34,4.83-11.68,4.68l-3.35,0c-4.86-.13-10.26-.12-13-1.85-.31-.19-.91-.71-1-1A1.38,1.38,0,0,1,234,514.59Z"/><path class="cls-1" d="M265.52,511.07a13.62,13.62,0,0,1,1.46-4.76c3.41-6.83,10-13.38,18.43-13.55,5.63-.21,12.13,5,11.83,10.87a2.7,2.7,0,0,1-2.78,2.88c-1.84.08-3.33-.77-5.22-.7-3.14.15-8.56,3.51-10.15,5.48a4.31,4.31,0,0,0-1.06,2.29c-.18,1.94,2.44,3.2,5.38,3.2,5.72,0,10.33-2.3,12.58-6.2a14.49,14.49,0,0,0,1.15-2.9c.06-.1.12-.2.24-.2s.16,0,.15.23c-.28,5.05-3.83,8.54-9.18,9.91a33.54,33.54,0,0,1-9,.89c-5.72-.16-10.23-.26-12.6-3A5.88,5.88,0,0,1,265.52,511.07Zm12.93-1.22c2.19-1.76,3.73-2.63,5.11-3.67,2-1.53,4.15-4.42,4.29-7.31a3.88,3.88,0,0,0-3.77-4.31c-4,.18-5.67,5.3-5.85,8.3A53.15,53.15,0,0,0,278.45,509.85Z"/><path class="cls-1" d="M313.7,518.31a11.5,11.5,0,0,1-5,.7c-7.52-.12-9.3-3.81-9-9.32.26-4,3.18-15.65,12.21-17.44.22,0,.51-.09.74-.1,2.67-.11,5.34,1.66,7.56,3.13a22.09,22.09,0,0,0-1-6.4c-1.64-5.43-3.55-7.87-7.8-7.84-.34,0-.32-.52-.32-.6,0-.46.69-.54,1.32-.55l4.81-.07a9.92,9.92,0,0,1,4,.46c1.4.72,2.15,2,3.13,3.32a26.34,26.34,0,0,1,4.89,16.27c-.1,3-.89,5.82-1,8.43a7.77,7.77,0,0,0,1.36,4.73,4.72,4.72,0,0,1,.35,2.47c-.14,3.17-2.61,3.81-6.83,3.77h-.35c-2.71,0-5.74-.65-6.5-2.39C315.46,517.38,314.58,517.86,313.7,518.31Zm.79-4.36a5.49,5.49,0,0,0,1.46-.37c.22-1.93.13-3.51,1.42-5.56a16.55,16.55,0,0,0,2.61-7.74c.11-2.85-1-5.24-4.65-5.06s-5.63,2.84-5.78,6.34a10.73,10.73,0,0,0,.52,3.59c.18,1,.7,3.33.69,3.4C311,512.42,311.15,514,314.49,514Z"/><path class="cls-1" d="M351.05,499.31a19.21,19.21,0,0,0,1.46-6.63c0-.2,0-.4,0-.6-5.18.29-5.24.23-5.24.23a.8.8,0,0,1-.21-.65,1.32,1.32,0,0,1,.31-.87l5.29-.28a15.49,15.49,0,0,0-.8-5c-.22-.54-1.46-3.57-1.9-4.43a4.18,4.18,0,0,1-.36-1.37c0-.26.06-.4.35-.4.62,0,1.24-.09,1.87-.09a6.54,6.54,0,0,1,1.92.23,7.5,7.5,0,0,1,4.18,3.84,60.76,60.76,0,0,1,2.6,6.76l4.38-.24c.17,0,.34.1.33.57a1.27,1.27,0,0,1-.35,1l-4.1.23c0,.18.06,2.52,0,3.15,0,2.55-.28,5.78-.33,8.41a18,18,0,0,0,.47,5.52,13.68,13.68,0,0,1,.82,4.66c-.06,3.42-1.8,6.16-6.94,6.07l-1.56,0a8.58,8.58,0,0,1-3.86-.58c-2.78-1.44-2.74-4.6-2.71-5.69S348.68,505.53,351.05,499.31Z"/><path class="cls-1" d="M379.66,488.7c8.93-.42,14.6,7.37,14.59,15.86v.35c-.19,9.5-7,14.84-14.83,14.62h-.81c-7.92-.23-14.37-4.35-14.21-12.93S369.88,489.16,379.66,488.7ZM379.17,516a1.91,1.91,0,0,0,1.86-2c.09-3.17,0-5.87.82-8.3.08-.23.16-.46.23-.69,1-2.77,2.23-6.26,2.25-8.52,0-2.76-1.61-6.71-4.91-6.53-1.25.07-3,1.54-2.76,2.78a30.1,30.1,0,0,1,1,8v.28c0,3.27-1.73,6.38-1.77,9.59C375.86,512.74,376.28,516,379.17,516Z"/><path class="cls-1" d="M410.93,510.42c0-2.55,1.41-3.72,2.91-3.79a3.51,3.51,0,0,1,1.55.36c4.27,2.11,5.37,9.74,11.09,9.81a3.8,3.8,0,0,0,3.82-4.12,5.36,5.36,0,0,0-3.63-4.74c-2.34-.73-4.69-1.42-7-2.09a14.07,14.07,0,0,1-6.81-4.32,8.51,8.51,0,0,1-1.46-5.12c0-6.73,5.81-9.8,11.73-10.13,2.67-.14,6.26.11,8.34,1.72.29.18,1.68,1.34,2,1.64a10.7,10.7,0,0,0,4.39,2.54.78.78,0,0,1,.24.66c-.09,1.12-2.13,2.23-3.22,2.3-5.73.18-6.88-8.37-12.74-7.89a3.69,3.69,0,0,0-3.5,3.62c0,1.79,1.8,2.91,3.41,3.37q5.13,1.53,10.29,3.17c2.47.79,6.31,3.55,7,6.72a12.23,12.23,0,0,1,.46,3.3c.1,5.94-3.5,12.9-10.85,12.75l-3.35,0c-4.85,0-10.3-.8-13.38-5.73a9.08,9.08,0,0,1-1.16-2.52A6.38,6.38,0,0,1,410.93,510.42Z"/><path class="cls-1" d="M435.91,486a.46.46,0,0,1,.33-.46l10.7-.54c4.84,1.69,9.11,7,11.93,13.82.06,0,1.19-4.87,1.66-6.47a2.74,2.74,0,0,0,.08-.9,6.82,6.82,0,0,0-1.23-2.78c-.9-1.41-2.21-3-4.09-2.91-.4,0-2.5.08-2.58-.48,0-.24,0-.52.84-.56,3.58-.22,6-.33,7.57-.4,3.19-.15,3.19-.11,3.19-.11,3.57-.47,9,8.23,10.08,13.39,0,0,1.11-4.72,1.5-6.35a10.42,10.42,0,0,0,.45-3.26c-.13-3-3-3.21-5.62-3.13-.34,0-.52-.15-.52-.33a.71.71,0,0,1,.77-.66q6.25-.29,12.52-.54c.57,0,1.71,0,1.73.32,0,.13,0,.48-.38.49-2.9.1-4.55,1.26-5.54,3.65-2.17,5.41-2.34,12.32-3.33,23-.41,4.08-1.89,10.38-5.36,10.35-2.08,0-3.29-2.65-4.16-5.79-3.89-14.09-4.48-20.53-5-20.65-.17,0-.57,1.92-1,4.49-.36,2-.86,4.82-1.63,9S456,521,451.72,521a4.18,4.18,0,0,1-3.33-2.08c-1.72-2.85-2.13-7-2.3-10-.52-10.7.68-21.65-9.77-22.58A.36.36,0,0,1,435.91,486Z"/><path class="cls-1" d="M487,483.87c-.23,0-.34,0-.36-.42,0-.21.27-.26.38-.27l6.09-.24c.68,0,1,0,1.15.09,3.61,2.21,5.48,4.75,5.7,9.66q.07,1.62.15,3.39c.1,2.33.08,4.86.17,7.49.11,3,1.17,5.67,1.28,9,.14,4.35-1.37,8.4-4.43,8.35l-5.67-.07c-2.25,0-3.27-3.84-3.37-7.55-.35-12.33,3.6-15.68,3.49-23.66C491.46,487.12,490.79,484.25,487,483.87Zm5-6.65c2.38,0,4.12.82,4.23,2.06.05.66-.52,1.36-1.83,1.4-.68,0-1.26-.14-1.94-.12-1,0-1.89.68-2.86.72a2.37,2.37,0,0,1-2.3-1.89C487.22,477.72,489.32,477.28,492,477.22Z"/><path class="cls-1" d="M524.08,490.32c-.25-4.4-2.8-6.86-6-6.78a6,6,0,0,0-3.4,1.24,18.35,18.35,0,0,1,2.87,9.15c0,.65.07.37-.28,13.46,0,.25,0,.51,0,.77.25,6.59-.06,13.46-4.45,13.38l-1.5,0c-4.22,0-7.22-2-7.45-9.29-.2-6.42,1.95-10.59,3.3-15.37a22.6,22.6,0,0,0,1.3-7.49c-.09-1.88-.69-4.12-2.4-4.94-.47-.27-3.38-1-3.45-1.29s.3-.51.82-.53l5.69-.19A10.1,10.1,0,0,1,514,484a12.07,12.07,0,0,1,6.7-2c4.27-.11,5.69.48,7.81,2a11.24,11.24,0,0,1,6.54-2.32c7.85,0,12.81,3.3,13.36,12.34.1,1.69,0,3.72.09,5.82.28,5.48,2.72,7.21,3,12.74.31,7.08-4.52,9.64-8.39,9.52s-5.81-4.34-6.06-10.51c-.19-4.92,1.48-8.69,2.28-12.29a23.81,23.81,0,0,0,.66-6.84c-.27-4.67-2.78-9.44-7.5-9.22a4.93,4.93,0,0,0-3.2,1.45c2.55,2.86,3.56,6.05,3.83,11.12.12,2.31.07,4.81.19,7.5.13,3,.56,6.36.69,9.87.2,4.94-1.47,8.8-4.36,8.74l-2.31,0c-3.58,0-7-.4-7.31-7.85C519.66,504.2,524.48,497.33,524.08,490.32Z"/><path class="cls-1" d="M571.54,491.21l.14-.5c.86-3.67,1.67-6.65,1.38-9.2-.25-2.21-1-4.18-4.06-4.73a9.12,9.12,0,0,0-2.32-.19c-.62,0-.91,0-.95-.22s.14-.11.93-.12l7.48-.1a3.6,3.6,0,0,1,.89.15c4.28,1.29,5,3.47,6.51,7.74,2.25-1.85,3-2.69,6.47-2.67h.22a8.08,8.08,0,0,1,5.57,2.36c1.6,1.53,2.67,5.55,2.9,8.39,0,.15,0,.3,0,.46,1,12.54,3.2,13,3.66,20.28s-2.24,9.88-6.69,9.76c-5.26,0-7.15-6-7.49-12.23a34.32,34.32,0,0,1,.56-9.88c3-11.22,2.77-12.92,2.73-13.67-.18-1.91-1.32-4-3.66-4-1.65,0-2.83,1.07-4.32,2.83.33,3.41-1.17,8.4-.82,14,.23,3.62,1.26,6.58,1.45,10.17.34,6.27-1.86,12.59-6,12.53-4.57,0-7.08-3.59-7.45-11.41C568.38,503.42,570.34,496.59,571.54,491.21Z"/><path class="cls-1" d="M601.23,500.59a24.4,24.4,0,0,1,.52-7.46c2.2-8.62,8-11.48,16.45-11.4,5.63.15,12.84,3.86,13.53,10.91.2,2-.46,3.51-2.29,3.39s-3.5-1.45-5.39-1.55c-3.14-.21-8,3.85-9.14,7.67a12.62,12.62,0,0,0-.52,4.76c.31,4.54,3.35,9.1,6.29,9.17,5.72.14,9.63-6.94,11.09-13.44a33.46,33.46,0,0,0,.58-4.59c0-.14.09-.28.2-.27s.18.08.21.37c.66,7.37-2,16-6.88,20.86a11.42,11.42,0,0,1-8.67,3.53c-5.73,0-10.39-2.12-13.62-11.18A39.48,39.48,0,0,1,601.23,500.59ZM614,499.47a31.58,31.58,0,0,1,4.43-5.09c1.72-1.9,3.41-5.13,3.12-7.71a4.43,4.43,0,0,0-4.41-3.77c-4-.17-5,3.5-4.65,7C612.71,492.5,613.3,495.23,614,499.47Z"/><path class="cls-1" d="M635.38,514c-.07-1-.15-2.13-.12-3.33,0-3.95,1.37-6.71,2.15-9.58a28.33,28.33,0,0,0,1.13-10.28c-.25-2.36-.73-4.5-2.59-6.33-1-.93-3-1-3.13-1.91,0-.2,0-.2.6-.17,0,0,.57.07,1,.09,1.58.06,3.15.13,4.73.21,2.44.11,4.39,1.55,6.17,3.69a12,12,0,0,1,7.76-2.64c3.35.2,7.06,2.67,7.53,6.74.19,1.66.3,4.67-1.76,4.48-1.38-.13-2.58-1.35-4-1.47-.8-.07-1.39.2-2.19.13-1.6-.14-2.12-1.3-2.31-3-.07-.68,0-1.28-.1-1.88a2.6,2.6,0,0,0-2.18-2.25c-.91-.06-2.29,1.21-2.34,1.27a21.56,21.56,0,0,1,2.16,7.4c.3,3-.09,6.14.23,9.77.27,3.1,1.5,6.19,1.77,9.61.3,3.72-1.4,8.77-6.32,8.75C638,523.21,635.85,520.63,635.38,514Z"/><path class="cls-1" d="M661.57,504.28a23.15,23.15,0,0,1,.36-7.2c2-8.56,7.67-12.66,16.09-12.15,5.63.34,13,6.25,13.84,13.69.25,2.12-.38,3.5-2.21,3.26s-3.52-1.68-5.41-1.93c-3.15-.41-7.88,3.26-9,6.61a9.78,9.78,0,0,0-.43,4.16c.4,4,3.51,7.72,6.46,7.85,5.71.22,9.5-4.88,10.82-10.44a26.65,26.65,0,0,0,.48-4.11c0-.13.08-.26.19-.24s.18.09.22.36c.82,7-1.67,13.25-6.47,16.82a13.46,13.46,0,0,1-8.61,2.57c-5.72,0-10.41-1.57-13.8-9.48A32.39,32.39,0,0,1,661.57,504.28Zm12.71-.24a31.8,31.8,0,0,1,4.31-4.58,10.88,10.88,0,0,0,2.91-8.1c-.29-2.44-2.2-4.71-4.53-4.9-4-.34-4.84,4.26-4.43,7.91C672.87,497.21,673.51,500,674.28,504Z"/>
        </g>
    </g>
</svg>