<?xml version="1.0" encoding="UTF-8"?>
<svg width="1600px" height="1200px" viewBox="0 0 1600 1200" version="1.1" xmlns="http://www.w3.org/2000/svg" xmlns:xlink="http://www.w3.org/1999/xlink">
    <!-- Generator: Sketch 64 (93537) - https://sketch.com -->
    <title>Artboard</title>
    <desc>Created with Sketch.</desc>
    <defs></defs>
    <g id="Artboard" stroke="none" stroke-width="1" fill="none" fill-rule="evenodd">
        <g id="Alienation" transform="translate(000.000000, 000.000000)" fill="#fff" fill-rule="nonzero">
            <path d="M1487.6179,563.7847 C1501.5779,564.6237 1519.7739,579.2847 1521.9359,597.7427 C1522.5519,602.9767 1520.9989,606.4157 1516.4519,605.8047 C1511.9039,605.1947 1507.7189,601.6417 1503.0339,601.0417 C1495.2309,600.0147 1483.4939,609.1197 1480.8189,617.4157 C1479.7499,620.6677 1479.3709,623.8717 1479.7609,627.7457 C1480.7399,637.5747 1488.4619,646.8837 1495.7619,647.2017 C1509.9319,647.7587 1519.3189,635.1117 1522.5959,621.3087 C1523.4419,617.7357 1523.4299,615.2387 1523.7859,611.1267 C1523.8909,610.8077 1523.9909,610.4887 1524.2759,610.5267 C1524.4189,610.5467 1524.7239,610.7557 1524.8019,611.4307 C1526.8549,628.7927 1520.6719,644.2707 1508.7659,653.1417 C1502.5579,657.7797 1495.4369,659.6457 1487.4109,659.4977 C1473.2269,659.3827 1461.5999,655.5997 1453.1899,636.0037 C1449.7979,628.2607 1447.6299,620.0037 1446.8319,611.7687 C1446.2299,605.5397 1446.4649,599.4677 1447.7059,593.9197 C1452.6119,572.6777 1466.7419,562.5277 1487.6179,563.7847 Z M1377.0078,557.5235 C1377.0078,557.5235 1378.4368,557.7035 1379.4238,557.7475 C1383.3288,557.9145 1387.2348,558.0885 1391.1398,558.2715 C1397.2088,558.5545 1402.0298,562.1225 1406.4498,567.4345 C1411.0408,563.5695 1418.7708,560.4885 1425.6868,560.8865 C1434.0108,561.3705 1443.2098,567.4925 1444.3678,577.5885 C1444.8478,581.7215 1445.0988,589.1745 1439.9878,588.7115 C1436.5818,588.3795 1433.5898,585.3565 1430.1888,585.0585 C1428.2008,584.8795 1426.7308,585.5495 1424.7438,585.3765 C1420.7718,585.0375 1419.4898,582.1675 1419.0288,578.0035 C1418.8418,576.3105 1418.9528,574.8215 1418.7828,573.3345 C1418.5108,570.9425 1416.3298,567.9545 1413.3628,567.7595 C1411.1008,567.5955 1407.6858,570.7565 1407.5598,570.9045 C1410.2668,576.1065 1412.2698,582.8965 1412.9088,589.2515 C1413.6668,596.7585 1412.7008,604.4735 1413.4898,613.4835 C1414.1598,621.1735 1417.2088,628.8175 1417.8848,637.3095 C1418.6288,646.5425 1414.4008,659.0705 1402.2128,659.007972 C1388.4348,658.7235 1383.0378,652.3025 1381.8818,635.8965 C1381.7068,633.4535 1381.5008,630.6045 1381.5648,627.6285 C1381.5488,617.8545 1384.9658,610.9925 1386.8998,603.8785 C1389.2748,595.3225 1390.5418,586.3965 1389.6978,578.3895 C1389.0808,572.5295 1387.9118,567.2325 1383.2818,562.7015 C1380.8878,560.3875 1375.8048,560.1505 1375.5188,557.9445 C1375.4548,557.4585 1375.5958,557.4655 1377.0078,557.5235 Z M1230.0085,541.999402 C1230.5695,541.9918 1231.7535,542.2208 1232.2115,542.3708 C1242.8225,545.5858 1244.7065,550.9818 1248.3485,561.5808 C1253.9455,556.9978 1255.7795,554.9068 1264.3925,554.9478 C1264.5805,554.9478 1264.7685,554.9498 1264.9575,554.9518 C1270.7555,555.1038 1275.7285,557.6348 1278.7595,560.8018 C1282.7285,564.5898 1285.3935,574.5788 1285.9555,581.6028 C1285.9865,581.9808 1286.0175,582.3618 1286.0475,582.7438 C1288.4115,613.8388 1293.9975,614.9248 1295.1225,633.0568 C1296.1405,650.9218 1289.5705,657.5538 1278.5335,657.2458 C1265.4865,657.1178 1260.7955,642.3498 1259.9575,626.9218 C1259.4905,618.3578 1259.5365,609.4138 1261.3585,602.4168 C1268.8825,574.5928 1268.2175,570.3738 1268.1105,568.5108 C1267.6685,563.7828 1264.8405,558.6828 1259.0485,558.6678 C1254.9515,558.6418 1252.0175,561.3338 1248.3335,565.6898 C1249.1535,574.1558 1245.4305,586.5208 1246.2955,600.3688 C1246.8575,609.3298 1249.4165,616.6848 1249.8965,625.5868 C1250.7395,641.1188 1245.2885,656.8048 1235.1085,656.6488 C1223.7825,656.6998 1217.5655,647.7538 1216.6345,628.3518 C1215.7275,609.6308 1220.5855,592.6928 1223.5645,579.3648 C1223.6755,578.9458 1223.7865,578.5298 1223.8975,578.1168 C1226.0465,569.0118 1228.0605,561.6218 1227.3255,555.2948 C1226.7105,549.8178 1224.7595,544.9248 1217.2555,543.5638 C1216.3775,543.4048 1215.0315,543.0478 1211.5165,543.0928 C1209.9715,543.1158 1209.2565,543.0588 1209.1425,542.5678 C1209.0955,542.3738 1209.4965,542.2758 1211.4635,542.2488 C1217.6445,542.1658 1223.8275,542.0828 1230.0085,541.999402 Z M1339.2744,555.8361 C1353.2314,556.2301 1371.1134,565.4091 1372.8334,582.8901 C1373.3224,587.8821 1371.6784,591.6151 1367.1314,591.3201 C1362.5864,591.0261 1358.4724,587.7221 1353.7884,587.4681 C1345.9854,586.9501 1333.9924,597.0091 1331.1214,606.4901 C1329.9734,610.1791 1329.5214,613.8251 1329.8264,618.2871 C1330.5884,629.5411 1338.1234,640.8571 1345.4224,641.0311 C1359.5924,641.3741 1369.2904,623.8281 1372.9184,607.7001 C1373.8534,603.5491 1373.9034,600.7611 1374.3624,596.3281 C1374.4734,595.9781 1374.5834,595.6311 1374.8674,595.6501 C1375.0074,595.6601 1375.3104,595.8561 1375.3734,596.5701 C1377.0054,614.8411 1370.4234,636.1511 1358.3074,648.2911 C1351.9904,654.6571 1344.8274,657.1811 1336.8024,657.0391 C1322.6184,657.1171 1311.0544,651.7961 1303.0344,629.3151 C1299.7964,620.5001 1297.8004,611.3941 1297.1874,602.6231 C1296.7234,595.9891 1297.1014,589.7031 1298.4804,584.1271 C1303.9244,562.7441 1318.4004,555.6431 1339.2744,555.8361 Z M1133.1091,555.8391 C1152.5901,555.8491 1164.8851,564.0261 1166.2431,586.4391 C1166.4951,590.6421 1166.2071,595.6741 1166.4801,600.8801 C1167.1721,614.4721 1173.2151,618.7531 1173.8201,632.4651 C1174.5741,650.0321 1162.6131,656.3871 1153.0081,656.0741 C1143.1161,656.0151 1138.5981,645.3101 1137.9901,630.0091 C1137.5011,617.8101 1141.6491,608.4701 1143.6231,599.5371 C1145.0181,593.3131 1145.5951,588.2121 1145.2621,582.5891 C1144.5981,571.0021 1138.3771,559.1601 1126.6591,559.7101 C1123.9761,559.7701 1120.1511,561.4901 1118.7281,563.3001 C1125.0651,570.4061 1127.5731,578.3221 1128.2331,590.8851 C1128.5311,596.6051 1128.4031,602.8071 1128.7011,609.4811 C1129.0331,616.9561 1130.0911,625.2611 1130.4261,633.9651 C1130.8991,646.2151 1126.7831,655.7791 1119.6131,655.6251 L1113.8811,655.5491 L1113.8811,655.5491 C1104.9941,655.6261 1096.3831,654.5331 1095.7551,636.0621 C1094.9021,611.5581 1106.8671,594.5371 1105.8721,577.1431 C1105.2421,566.2381 1098.9331,560.1371 1090.8861,560.3321 C1088.3421,560.4181 1085.4311,561.2331 1082.4621,563.4081 C1086.2871,569.7181 1089.0971,576.4531 1089.5771,586.0921 C1089.6151,587.7081 1089.7351,587.0301 1088.8681,619.4731 C1088.8921,620.1051 1088.9151,620.7421 1088.9391,621.3821 C1089.5511,637.7451 1088.7871,654.7681 1077.8921,654.5671 C1076.6491,654.5511 1075.4071,654.5351 1074.1651,654.5191 C1063.7011,654.5561 1056.2711,649.5491 1055.7061,631.4801 C1055.1961,615.5731 1060.5291,605.2191 1063.8701,593.3611 C1065.8611,586.6531 1067.4251,580.6511 1067.1131,574.8011 C1066.8691,570.1351 1065.3961,564.5751 1061.1531,562.5331 C1059.9761,561.8801 1052.7701,559.9581 1052.5891,559.3501 C1052.5311,558.5121 1053.3511,558.0811 1054.6221,558.0361 C1059.3271,557.8741 1064.0331,557.7171 1068.7381,557.5661 C1072.8311,557.4281 1077.3761,559.5041 1080.9151,561.5241 C1085.9271,558.2581 1090.8931,556.8071 1097.5271,556.6051 C1108.1141,556.3501 1111.6441,557.8101 1116.8991,561.6121 C1122.5551,557.8571 1126.7571,555.9941 1133.1091,555.8391 Z M1009.4897,560.4787 C1009.5077,560.7977 1009.4137,561.6747 1008.5657,561.7117 C1001.3577,561.9387 997.2677,564.8247 994.8277,570.7517 C989.4387,584.1747 989.0127,601.3047 986.5557,627.7777 C985.5347,637.9017 981.8797,653.5397 973.2767,653.455387 C968.1157,653.3857 965.1167,646.8887 962.9427,639.0867 C953.3147,604.1677 951.8447,588.1777 950.5597,587.8747 C950.1327,587.9047 949.1337,592.6587 948.0137,599.0247 C947.1417,603.9267 945.8887,610.9697 943.9737,621.3307 C942.0617,631.4017 937.0337,653.3087 926.4187,653.2647 C923.5517,653.2257 920.0807,651.3107 918.1667,648.0997 C913.8987,641.0347 912.8737,630.8357 912.4537,623.2247 C911.1637,596.6967 914.1527,569.5367 888.2277,567.2267 C887.5207,567.2647 887.2307,566.7907 887.219182,566.3077 C887.2097,565.8227 887.4817,565.3297 888.0437,565.1807 C896.8887,564.7247 905.7347,564.2777 914.5807,563.8377 C926.5657,568.0157 937.1687,581.1167 944.1457,598.0957 C944.2937,598.1197 947.1067,586.0257 948.2607,582.0637 C948.5157,581.0647 948.4987,580.5087 948.4777,579.8197 C948.4107,577.5967 946.3227,574.2767 945.4287,572.9297 C943.1907,569.4277 939.9447,565.4717 935.2847,565.7177 C934.2967,565.7707 929.0657,565.9117 928.8817,564.5187 C928.8637,563.9377 928.9827,563.2427 930.9587,563.1477 C939.8477,562.6027 945.7757,562.3257 949.7287,562.1397 C957.6337,561.7697 957.6387,561.8847 957.6377,561.8827 C966.5057,560.7147 979.9777,582.2947 982.6387,595.0847 C982.6457,595.1077 985.3937,583.3747 986.3687,579.3247 C987.2387,575.9297 987.5837,573.9227 987.4737,571.2407 C987.1627,563.8777 979.9047,563.2887 973.5487,563.4967 C972.7027,563.5367 972.2597,563.1037 972.2407,562.6567 C972.2107,561.9847 972.8787,561.0787 974.1487,561.0237 C984.4997,560.5637 994.8517,560.1207 1005.2027,559.6967 C1006.6147,559.6407 1009.4437,559.6257 1009.4897,560.4787 Z M1031.907,559.0635 C1040.874,564.5405 1045.509,570.8435 1046.062,583.0335 C1046.182,585.7155 1046.302,588.5165 1046.422,591.4365 C1046.66,597.2205 1046.614,603.4915 1046.845,610.0115 C1047.109,617.5105 1049.754,624.0655 1050.016,632.4055 C1050.354,643.1805 1046.623,653.2335 1039.027,653.1045 C1034.346,653.0495 1029.665,652.9945 1024.983,652.9395 C1019.393,652.8545 1016.862,643.4045 1016.608,634.2145 C1015.736,603.6455 1025.555,595.3185 1025.263,575.5275 C1024.981,569.2125 1023.312,562.0865 1013.915,561.1595 C1013.344,561.0775 1013.067,561.1885 1013.008,560.1205 C1012.978,559.5895 1013.68,559.4605 1013.96,559.4485 C1018.995,559.2475 1024.03,559.0505 1029.065,558.8595 C1030.758,558.7965 1031.464,558.7695 1031.907,559.0635 Z M876.1428,571.3868 C876.8578,571.8448 880.3028,574.7278 881.1678,575.4718 C885.0558,579.0498 886.9108,579.7688 892.0538,581.7688 C892.4838,582.0158 892.6378,582.6938 892.6518,583.3868 C892.4218,586.1738 887.3598,588.9408 884.6628,589.1058 C870.4638,589.5438 867.6018,568.3458 853.0668,569.5278 C848.1258,569.7958 844.3528,573.9588 844.3948,578.5218 C844.4368,582.9428 848.8578,585.7338 852.8408,586.8718 C861.3318,589.4008 869.8378,592.0048 878.3588,594.7378 C884.4968,596.6988 894.0018,603.5308 895.7018,611.3978 C896.4578,613.9928 896.7858,616.6648 896.8318,619.5768 C897.0758,634.2978 888.1478,651.5588 869.9338,651.1948 L861.6218,651.1038 C849.5878,651.0468 836.0908,649.1088 828.4498,636.8888 C827.5848,635.5878 825.8538,632.3858 825.5608,630.6408 C825.2688,629.3688 825.2628,628.0958 825.256449,626.9878 C825.2278,620.6758 828.7768,617.7728 832.4808,617.5838 C833.7638,617.5248 835.0498,617.9308 836.3368,618.4998 C846.9218,623.7348 849.6558,642.6328 863.8318,642.8098 C868.6998,642.8138 873.3828,639.2808 873.3028,632.6068 C873.2358,626.9918 868.6068,622.1378 864.3138,620.8428 C858.4908,619.0438 852.6748,617.3168 846.8638,615.6518 C840.7178,613.8898 833.8528,609.9078 829.9838,604.9428 C827.2608,601.5288 826.3818,596.4948 826.3578,592.2508 C826.2778,575.5708 840.7698,567.9418 855.4398,567.1338 C862.0728,566.7948 870.9808,567.3918 876.1428,571.3868 Z M783.903072,612.4572 C783.902,612.7462 783.901,613.0362 783.901,613.3262 C783.439,636.8792 766.635,650.1342 747.129,649.5812 C746.46,649.5752 745.792,649.5682 745.123,649.5612 C725.473,649.0012 709.476,638.7702 709.883,617.4982 C710.29,596.0522 723.481,574.2692 747.73,573.1352 C769.859,572.0972 783.929,591.4132 783.903072,612.4572 Z M683.4649,550.2887 C687.128233,551.488422 691.15642,554.623947 693.618725,559.409477 L693.8259,559.8237 C696.5399,565.1897 699.4779,574.1497 700.2809,576.5797 C703.9049,576.3847 707.5289,576.1887 711.1529,575.9917 C711.5729,576.1147 711.9959,576.2387 711.9769,577.4007 C711.9579,578.5637 711.5199,579.4567 711.0909,579.7717 C707.6999,579.9677 704.3099,580.1617 700.9189,580.3557 C700.9099,580.8057 701.0879,586.5917 701.0589,588.1547 C700.9419,594.4747 700.3669,602.4867 700.2389,609.0077 C700.1299,614.5927 700.3149,619.6077 701.3909,622.7017 C702.7369,626.5757 703.5159,630.5647 703.4419,634.2677 C703.2759,642.7407 698.9789,649.5267 686.2209,649.3107 C684.9309,649.2957 683.6409,649.2817 682.3519,649.2657 C678.1959,649.2207 675.0449,649.0647 672.7909,647.8207 C665.8799,644.2627 665.9899,636.4217 666.0669,633.7247 C666.1499,631.1437 670.9009,614.8697 676.7759,599.4497 C678.5829,594.8667 680.2649,589.1977 680.3989,582.9957 C680.4099,582.5037 680.4209,582.0107 680.4309,581.5157 C667.5739,582.2347 667.4359,582.0887 667.4359,582.0897 C667.0229,581.6627 666.8919,581.2207 666.9099,580.4667 C666.9349,579.4107 667.2289,578.9407 667.6669,578.3117 C672.0439,578.0837 676.4209,577.8537 680.7969,577.6217 C680.8709,574.1797 680.1359,568.8767 678.8029,565.3317 C678.2669,563.9867 675.1889,556.4747 674.1099,554.3467 C673.8419,553.7047 673.1729,552.0897 673.1969,550.9387 C673.2109,550.2817 673.3589,549.9497 674.0609,549.9407 C675.6069,549.9177 677.1549,549.7327 678.7009,549.7107 C680.2469,549.6887 681.7879,549.8307 683.4649,550.2887 Z M602.9287,552.2502 C606.3877,554.0262 608.2627,557.2352 610.6977,560.4892 C619.4817,572.5262 623.2807,587.3202 622.8227,600.8442 C622.5747,608.1882 620.6167,615.2762 620.3597,621.7482 C620.1717,626.4972 621.4597,629.6552 623.7217,633.4742 C624.7827,635.3302 624.6807,637.7062 624.5957,639.5802 C624.2437,647.4562 618.1237,649.0372 607.6587,648.9382 L606.7987,648.9272 C600.0617,648.7882 592.5617,647.2942 590.6857,642.9822 C588.5117,644.2432 586.3337,645.4422 584.1547,646.5732 C580.7387,648.2962 575.8517,648.3402 571.6967,648.2972 C553.0477,648.0032 548.6447,638.8592 549.4507,625.1862 C550.1157,615.3472 557.3447,586.3722 579.7277,581.9352 C580.2927,581.9102 581.0037,581.7172 581.5687,581.6922 C588.2027,581.4122 594.8127,585.7922 600.3287,589.4602 C600.5077,584.4222 599.2947,578.5532 597.9087,573.5842 C593.8417,560.1142 589.1047,554.0652 578.5697,554.1462 C577.7267,554.1612 577.7687,552.8442 577.7747,552.6532 C577.8107,551.5152 579.5037,551.2992 581.0497,551.2782 C585.0307,551.2212 589.0107,551.1642 592.9917,551.1072 C596.2227,551.0582 600.4377,551.0062 602.9287,552.2502 Z M543.3387,610.1529 C543.1237,614.3179 540.9827,617.1009 536.4357,617.2939 C531.8877,617.4859 528.1847,615.3769 523.4997,615.5549 C515.6967,615.9389 502.2727,624.2719 498.3127,629.1579 C496.7337,631.1499 495.8727,632.9179 495.6997,634.8279 C495.2617,639.6449 501.7497,642.7599 509.0487,642.7779 C523.2197,642.8079 534.6437,637.0689 540.2227,627.3909 C541.6577,624.9379 542.0477,623.2229 543.0737,620.1979 C543.2307,619.9519 543.3857,619.7029 543.6707,619.6919 C543.8127,619.6859 544.0897,619.7979 544.0627,620.2779 C543.3567,632.7969 534.5497,641.4449 521.2777,644.8559 C514.3467,646.7159 506.9557,647.1439 498.9317,647.0619 C484.7457,646.6689 473.5477,646.4179 467.6837,639.6579 C465.3087,636.8119 464.2657,633.2169 464.6737,628.6039 C464.9827,625.1239 466.1547,621.1189 468.3057,616.7989 C476.7467,599.8539 493.1277,583.6259 514.0027,583.1979 C527.9607,582.6749 544.0707,595.6659 543.3387,610.1529 Z M441.6923,593.3775 C442.3593,594.0345 445.5203,597.7775 446.3113,598.6635 C449.8533,603.0255 451.6373,603.8105 456.5773,606.1365 C456.9833,606.4115 457.0783,607.1215 457.0323,607.8245 C456.5633,610.6495 451.2983,613.0155 448.6013,613.0805 C434.4033,614.2835 433.4483,590.3225 418.9153,589.7205 C413.9743,589.8135 409.8303,595.1595 409.4673,600.3585 C409.1153,605.4145 413.2733,608.3705 417.1383,609.6935 C425.3663,612.5865 433.6103,615.2925 441.8683,617.8275 C447.8143,619.7045 456.7343,625.3665 457.8623,630.0415 C458.4263,631.6125 458.5643,633.1105 458.4073,634.6095 C457.6243,642.4475 447.6453,646.5735 429.4323,646.2115 C426.6623,646.1765 423.8913,646.1415 421.1213,646.1065 C409.0863,645.8005 395.6853,645.8285 388.9393,641.5315 C388.1703,641.0595 386.6773,639.7725 386.5153,638.9935 C386.3193,638.4395 386.4083,637.8585 386.4863,637.3345 C386.9343,634.3015 390.6983,632.5455 394.4023,632.5695 C395.6853,632.5665 396.9353,632.8335 398.1743,633.1805 C408.3053,637.0205 409.7043,644.1295 423.8803,643.8695 C428.7473,643.8775 433.6573,642.9715 434.0313,640.3645 C434.3443,638.1625 430.0753,635.6745 425.8893,634.9385 C420.2143,633.9325 414.5453,632.8825 408.8813,631.7805 C402.8913,630.6185 396.3593,628.0365 392.9073,624.2235 C390.4703,621.6325 390.0093,617.5005 390.3433,613.5425 C391.6733,597.7785 406.8323,586.581866 421.5033,586.5925 C428.1373,586.4385 436.9363,587.9215 441.6923,593.3775 Z M362.2138,587.3641 C372.3298,588.0721 379.9978,605.8191 381.9068,614.3871 C382.4738,617.6031 382.6848,619.8781 382.4468,622.2701 C382.1518,625.1891 381.2318,628.6001 379.9628,632.9331 C379.7748,633.2841 379.7178,633.7141 379.6728,634.0511 C379.3428,636.4271 380.7868,637.3771 380.3008,640.2321 C380.2778,640.3611 380.2558,640.4881 380.2328,640.6141 C379.6488,643.0321 378.0008,643.8101 377.3718,644.0681 C372.9188,645.7961 365.6048,645.5341 359.4428,645.4971 L358.1528,645.4791 L358.1528,645.4791 C344.2478,645.3671 344.2678,643.3651 343.1278,642.6351 C335.5548,644.2841 328.7738,645.0671 319.8868,644.9601 C309.2808,644.6111 301.5548,644.8251 301.7278,639.8081 C301.6788,639.3771 301.7598,638.9951 301.8408,638.6021 C302.2628,635.6691 304.4228,637.1641 315.2358,618.0491 C316.6878,615.2151 317.9058,611.6531 318.2598,607.9161 C318.8628,601.6031 317.0468,594.4011 310.2398,591.2101 C309.1638,590.5421 307.4148,591.1931 307.5628,589.3731 C307.6308,588.5431 308.1338,587.5371 309.2638,587.5421 C315.1458,587.5811 321.0278,587.6051 326.9098,587.6181 C328.8838,587.6601 332.3898,593.5131 333.2658,594.9051 C339.4288,606.2571 340.1668,617.1371 339.0158,626.5561 C338.6398,629.2461 337.9238,635.0541 335.6188,642.2251 C346.9628,641.6231 356.9488,632.1951 358.1018,619.9831 C359.2248,609.3501 356.7258,591.1161 343.7418,590.9951 L340.6338,590.9971 L340.6338,590.9971 C339.3628,590.9951 338.8478,590.3381 338.8208,588.8151 C338.9338,587.2861 340.9098,587.2791 343.1688,587.2751 L345.5688,587.2691 L345.5688,587.2691 C351.0738,587.2551 356.8738,587.0551 362.2138,587.3641 Z M234.9616,585.3417 C248.9196,585.5087 264.4306,599.4227 262.8696,612.9437 C262.4176,616.7977 260.1066,619.1497 255.5596,618.9847 C251.0126,618.8187 247.4476,616.6017 242.7616,616.3907 C234.9596,616.1317 221.0526,622.6627 216.7236,626.8937 C214.9976,628.6147 213.9986,630.1977 213.6656,631.9597 C212.8196,636.4497 218.9556,639.5457 226.2546,639.7267 C240.4246,640.0437 252.4336,636.1357 258.6716,628.2217 C260.2766,626.1937 260.7806,624.7217 261.9996,622.0947 C262.1706,621.8857 262.3426,621.6747 262.6256,621.6837 C262.7686,621.6887 263.0376,621.8077 262.9796,622.2367 C261.4836,633.3877 251.9246,639.3177 238.2596,641.7257 C231.1216,643.0297 223.6556,643.3677 215.6306,643.2617 C201.4456,642.8667 190.3696,642.5827 185.2346,635.0717 C183.1526,631.9707 182.4316,628.1887 183.1846,623.7147 C183.7536,620.3347 185.1946,616.6217 187.6066,612.7967 C197.0606,597.9787 214.0856,584.7487 234.9616,585.3417 Z M75.692,577.4075 C84.538,578.1245 93.383,578.7975 102.228,579.4265 C113.275,585.4835 121.354,601.0605 125.939,613.4665 C126.065,613.6575 130.599,605.2365 132.401,601.7435 C132.812,600.9235 132.885,600.4345 132.976,599.8235 C133.266,597.8745 131.757,594.4435 131.11,592.9715 C129.499,589.2485 127.034,584.4195 122.374,584.0955 C121.385,584.0265 116.177,583.5175 116.261,581.9605 C116.355,581.3135 116.608,580.5445 118.584,580.6725 C127.496,581.1215 133.424,581.4685 137.376,581.7025 C145.281,582.1595 145.263,582.2905 145.263,582.2925 C154.131,583.1035 163.536,608.5935 164.589,615.9455 C164.573,616.1485 168.975,607.9985 170.622,604.1965 C172.025,601.2665 172.707,599.3445 173.066,596.5485 C174.074,588.5625 167.061,586.4085 160.706,586.1165 C159.858,586.0695 159.504,585.4835 159.575,584.9185 C159.68,584.0715 160.526,582.9645 161.796,583.0265 C172.148,583.5445 182.499,584.0095 192.851,584.4215 C194.262,584.4765 197.068,584.7425 196.937,585.9515 C196.887,586.4055 196.614,587.5955 195.767,587.5575 C188.581,587.0835 183.91,590.8235 180.442,596.8735 C172.75,610.3115 169.869,622.7245 164.461,633.6805 C162.302,637.9645 157.083,642.6735 148.479,642.5635 C143.318,642.4985 140.966,640.3485 139.642,637.0825 C133.834,622.1785 135.069,606.6445 133.783,606.8075 C133.357,606.7655 131.641,610.4305 129.651,614.5925 C128.108,617.7945 125.919,622.1665 122.751,627.5345 C119.589,632.9965 112.191,642.1475 101.576,642.0705 C98.709,642.0365 95.44,641.1415 93.883,639.5105 C90.396,635.9555 90.579,630.2475 91.119,625.6225 C93.025,610.6445 100.616,585.8875 75.496,579.3815 C74.789,579.3205 74.586,578.8345 74.666,578.3745 C74.745,577.9155 75.107,577.4775 75.692,577.4075 Z M747.135,576.2642 C744.028,576.4372 739.753,580.0832 740.283,583.1562 C741.89,591.2252 742.852,594.1032 742.757,603.0542 C742.754,603.2862 742.752,603.5182 742.75,603.7512 C742.666,611.8622 738.455,619.5892 738.359,627.5372 C738.297,632.7562 739.346,640.7622 746.5,640.7002 C749.218,640.6712 751.098,638.4042 751.12,635.8742 C751.333,628.0122 751.11,621.3062 753.153,615.2982 C753.348,614.7262 753.542,614.1542 753.737,613.5812 C756.215,606.6982 759.258,598.0542 759.298,592.4522 C759.204,585.5982 755.323,575.8122 747.135,576.2642 Z M588.1987,589.3012 C579.2957,589.6912 574.2447,596.3352 573.8627,605.0132 C573.6977,608.7552 574.3267,610.4662 575.1567,613.9252 C575.6087,616.4122 576.8837,622.1752 576.8717,622.3672 C577.3757,631.9612 577.8327,635.8372 586.1147,635.7422 C587.3997,635.7122 588.5717,635.1762 589.7297,634.8372 C590.2737,630.0572 590.0467,626.1232 593.2627,621.0522 C596.4747,616.1152 599.4807,608.5322 599.7337,601.8412 C600.0027,594.7722 597.2427,588.8502 588.1987,589.3012 Z M510.6927,587.6699 C500.8117,588.1109 496.6427,600.8199 496.1867,608.2509 C495.8317,614.1759 496.3447,619.4209 496.7397,625.5889 C502.1737,621.2229 505.9927,619.0679 509.4177,616.4689 C514.3347,612.6969 519.6927,605.5089 520.0477,598.3579 C520.3277,592.7869 516.4817,587.4639 510.6927,587.6699 Z M215.9326,607.3687 C215.2476,612.8167 215.4466,617.7247 215.4116,623.4717 C221.1366,619.8657 225.0786,618.2087 228.6576,616.0907 C233.7966,613.0267 239.5546,606.8027 240.2696,600.0747 C240.8336,594.8357 237.2416,589.5147 231.4526,589.3467 C221.5716,589.1557 216.8116,600.5467 215.9326,607.3687 Z M1474.0339,587.2007 C1474.8299,594.2457 1476.4409,601.2377 1478.3359,611.1807 C1482.7509,605.0647 1486.1429,602.8167 1489.0319,599.8037 C1493.1719,595.4457 1497.1369,587.3887 1496.2339,579.7327 C1495.5229,573.6847 1490.7939,568.0507 1485.0039,567.5667 C1475.1239,566.7277 1473.0169,578.1457 1474.0339,587.2007 Z M1325.0454,575.9921 C1325.6664,582.5471 1327.1104,589.3181 1328.7764,599.8511 C1333.3474,592.9781 1336.8044,590.4741 1339.7744,587.2191 C1344.0334,582.5021 1348.2114,574.5041 1347.4994,568.1001 C1346.9384,562.9831 1342.3434,558.9211 1336.5544,558.7401 C1326.6724,558.3251 1324.2524,567.4301 1325.0454,575.9921 Z M1036.894,549.7635 C1037.031,551.3995 1035.608,553.1445 1032.366,553.2495 C1030.674,553.3015 1029.234,552.9035 1027.542,552.9575 C1025.006,553.0235 1022.858,554.6445 1020.459,554.738512 C1016.928,554.7435 1014.892,551.6835 1014.767,550.0325 C1014.457,545.8935 1019.674,544.8095 1026.416,544.6665 C1032.314,544.6005 1036.633,546.6875 1036.894,549.7635 Z" id="Combined-Shape"></path>
        </g>
    </g>
</svg>